<svg xmlns="http://www.w3.org/2000/svg" viewBox="0 0 64 64" fill="none">
  <rect width="64" height="64" rx="12" fill="url(#g)"/>
  <path d="M32 18c-4 0-7 3-7 7 0 2 1 4 2 5l-4 4 6 6 4-4c1 1 3 2 5 2 4 0 7-3 7-7s-3-7-7-7-7 3-7 7c0 2 1 4 2 5l-3 3 2 2 3-3c1 1 3 2 5 2 4 0 7-3 7-7s-3-7-7-7zm0 10a3 3 0 1 0 0 6 3 3 0 0 0 0-6z" fill="white"/>
  <path d="M28 38v8h8v-8h-8z" fill="white" opacity=".8"/>
  <defs>
    <linearGradient id="g" x1="0" y1="0" x2="64" y2="64" gradientUnits="userSpaceOnUse">
      <stop stop-color="#8B1538"/>
      <stop offset="1" stop-color="#1a2d60"/>
    </linearGradient>
  </defs>
</svg>
